HIERARCHY
ROOT SpineBase
{
  OFFSET 0.000000 0.000000 0.000000
  CHANNELS 6 Xposition Yposition Zposition Zrotation Xrotation Yrotation
  JOINT SpineMid
  {
    OFFSET 0.000000 28.341041 0.000000
    CHANNELS 3 Zrotation Xrotation Yrotation
    JOINT SpineShoulder
    {
      OFFSET -0.105547 21.065755 -0.786913
      CHANNELS 3 Zrotation Xrotation Yrotation
      JOINT Neck
      {
        OFFSET -0.090336 6.966294 -0.555453
        CHANNELS 3 Zrotation Xrotation Yrotation
        JOINT Head
        {
          OFFSET 3.451417 11.886554 0.317224
          CHANNELS 3 Zrotation Xrotation Yrotation
          End Site
          {
            OFFSET 0 0 0
          }
        }
      }
      JOINT ShoulderLeft
      {
        OFFSET -13.547434 -3.794870 -7.857538
        CHANNELS 3 Zrotation Xrotation Yrotation
        JOINT ElbowLeft
        {
          OFFSET -5.260282 -23.348924 -0.026624
          CHANNELS 3 Zrotation Xrotation Yrotation
          JOINT WristLeft
          {
            OFFSET 0.002381 -18.619903 -3.924418
            CHANNELS 3 Zrotation Xrotation Yrotation
            JOINT HandLeft
            {
              OFFSET 0.413924 -7.168774 0.509035
              CHANNELS 3 Zrotation Xrotation Yrotation
              JOINT HandTipLeft
              {
                OFFSET -0.521283 -6.317306 -0.782868
                CHANNELS 3 Zrotation Xrotation Yrotation
                End Site
                {
                  OFFSET 0 0 0
                }
              }
              JOINT ThumbLeft
              {
                OFFSET -3.049263 -0.256857 -1.244025
                CHANNELS 3 Zrotation Xrotation Yrotation
                End Site
                {
                  OFFSET 0 0 0
                }
              }
            }
          }
        }
      }
      JOINT ShoulderRight
      {
        OFFSET 14.906281 -4.587423 3.367701
        CHANNELS 3 Zrotation Xrotation Yrotation
        JOINT ElbowRight
        {
          OFFSET 2.251470 -23.369400 3.021360
          CHANNELS 3 Zrotation Xrotation Yrotation
          JOINT WristRight
          {
            OFFSET 2.311261 -23.474152 -2.746750
            CHANNELS 3 Zrotation Xrotation Yrotation
            JOINT HandRight
            {
              OFFSET 0.099141 -5.862244 -1.939379
              CHANNELS 3 Zrotation Xrotation Yrotation
              JOINT HandTipRight
              {
                OFFSET -0.536273 -5.235764 -1.095347
                CHANNELS 3 Zrotation Xrotation Yrotation
                End Site
                {
                  OFFSET 0 0 0
                }
              }
              JOINT ThumbRight
              {
                OFFSET -1.943316 1.698764 -2.124212
                CHANNELS 3 Zrotation Xrotation Yrotation
                End Site
                {
                  OFFSET 0 0 0
                }
              }
            }
          }
        }
      }
    }
  }
  JOINT HipLeft
  {
    OFFSET -6.756175 0.968353 -5.545496
    CHANNELS 3 Zrotation Xrotation Yrotation
    JOINT KneeLeft
    {
      OFFSET -6.593904 -27.639861 5.926908
      CHANNELS 3 Zrotation Xrotation Yrotation
      JOINT AnkleLeft
      {
        OFFSET -4.262342 -33.141091 7.854593
        CHANNELS 3 Zrotation Xrotation Yrotation
        JOINT FootLeft
        {
          OFFSET 2.210274 -4.379520 -7.592607
          CHANNELS 3 Zrotation Xrotation Yrotation
          End Site
          {
            OFFSET 0 0 0
          }
        }
      }
    }
  }
  JOINT HipRight
  {
    OFFSET 6.143394 0.168818 -0.892912
    CHANNELS 3 Zrotation Xrotation Yrotation
    JOINT KneeRight
    {
      OFFSET -4.303549 -28.414147 8.317045
      CHANNELS 3 Zrotation Xrotation Yrotation
      JOINT AnkleRight
      {
        OFFSET -5.225457 -33.139790 10.060480
        CHANNELS 3 Zrotation Xrotation Yrotation
        JOINT FootRight
        {
          OFFSET 2.663530 -2.682250 -10.770281
          CHANNELS 3 Zrotation Xrotation Yrotation
          End Site
          {
            OFFSET 0 0 0
          }
        }
      }
    }
  }
}
MOTION
Frames: 13
Frame Time: 0.033333
34.089274 69.175228 359.324326 -0.000000 0.000000 -19.833230 -0.000000 0.000000 19.833230 -0.000000 0.000000 0.000000 -0.000000 0.000000 0.000000 0.000000 0.000000 0.000000 -0.000000 0.000000 0.000000 -0.000000 0.000000 0.000000 -0.000000 0.000000 0.000000 -0.000000 0.000000 0.000000 0.000000 0.000000 0.000000 0.000000 0.000000 0.000000 -0.000000 0.000000 0.000000 -0.000000 0.000000 0.000000 -0.000000 0.000000 0.000000 -0.000000 0.000000 0.000000 0.000000 0.000000 0.000000 0.000000 0.000000 0.000000 -0.000000 0.000000 19.833230 -0.000000 0.000000 0.000000 -0.000000 0.000000 0.000000 0.000000 0.000000 0.000000 -0.000000 0.000000 19.833230 -0.000000 0.000000 0.000000 -0.000000 0.000000 0.000000 0.000000 0.000000 0.000000
34.057993 69.160294 359.280892 -0.037153 0.074844 -19.753234 0.060262 -0.057884 19.753289 -0.000000 0.000000 0.000000 -0.000000 0.000000 0.000000 0.000000 0.000000 0.000000 -0.000000 0.000000 0.000000 -0.000000 0.000000 0.000000 -0.000000 0.000000 0.000000 0.038681 1.938251 -0.165059 0.000000 0.000000 0.000000 0.000000 0.000000 0.000000 -0.000000 0.000000 0.000000 -0.000000 0.000000 0.000000 -1.011641 -0.497975 0.322378 0.797875 -2.032626 -0.031682 0.000000 0.000000 0.000000 0.000000 0.000000 0.000000 0.060262 -0.057884 19.753289 -0.000000 0.000000 0.000000 1.065745 0.210314 -1.729754 0.000000 0.000000 0.000000 0.060262 -0.057884 19.753289 -0.000000 0.000000 0.000000 -1.370952 -4.109687 1.626836 0.000000 0.000000 0.000000
34.027751 69.146856 359.237922 -0.072544 0.147292 -19.644727 0.117840 -0.114330 19.644938 -0.000000 0.000000 0.000000 -0.000000 0.000000 0.000000 0.000000 0.000000 0.000000 -0.000000 0.000000 0.000000 -0.000000 0.000000 0.000000 -0.000000 0.000000 0.000000 0.061579 3.457708 -0.293808 0.000000 0.000000 0.000000 0.000000 0.000000 0.000000 -0.033433 1.198700 0.111672 0.124884 0.216381 0.018317 -1.997281 -1.734271 0.442402 1.601387 -3.716670 -0.168679 0.000000 0.000000 0.000000 0.000000 0.000000 0.000000 0.117840 -0.114330 19.644938 -0.000000 0.000000 0.000000 1.826329 -0.120269 -3.204498 0.000000 0.000000 0.000000 0.117840 -0.114330 19.644938 -0.000000 0.000000 0.000000 -2.492093 -7.776558 2.982720 0.000000 0.000000 0.000000
33.998550 69.134915 359.195413 -0.106187 0.217367 -19.507648 0.172678 -0.169430 19.508105 -0.000000 0.000000 0.000000 -0.000000 0.000000 0.000000 0.000000 0.000000 0.000000 -0.000000 0.000000 0.000000 -0.000000 0.000000 0.000000 -0.000000 0.000000 0.000000 0.064209 4.514464 -0.381353 0.000000 0.000000 0.000000 0.000000 0.000000 0.000000 -0.041604 1.666515 0.156093 0.182055 0.423626 0.035756 -2.811870 -1.486375 0.616217 2.403091 -5.152169 -0.383327 0.000000 0.000000 0.000000 0.000000 0.000000 0.000000 0.172678 -0.169430 19.508105 -0.000000 0.000000 0.000000 2.280584 -0.972167 -4.444086 0.000000 0.000000 0.000000 0.172678 -0.169430 19.508105 -0.000000 0.000000 0.000000 -3.313986 -10.664873 3.988648 0.000000 0.000000 0.000000
33.970390 69.124471 359.153368 -0.138092 0.285092 -19.341969 0.224723 -0.223263 19.342750 -0.000000 0.000000 0.000000 -0.000000 0.000000 0.000000 0.000000 0.000000 0.000000 -0.000000 0.000000 0.000000 -0.000000 0.000000 0.000000 -0.000000 0.000000 0.000000 0.043299 5.076399 -0.424128 0.000000 0.000000 0.000000 0.000000 0.000000 0.000000 -0.043818 2.046977 0.192802 0.236050 0.702660 0.058865 -3.491312 -0.390360 0.781964 3.197807 -6.449160 -0.646984 0.000000 0.000000 0.000000 0.000000 0.000000 0.000000 0.224723 -0.223263 19.342750 -0.000000 0.000000 0.000000 2.424020 -2.346448 -5.469526 0.000000 0.000000 0.000000 0.224723 -0.223263 19.342750 -0.000000 0.000000 0.000000 -3.808767 -12.499586 4.587946 0.000000 0.000000 0.000000
33.943270 69.115524 359.111785 -0.168271 0.350487 -19.147688 0.273926 -0.275901 19.148862 -0.000000 0.000000 0.000000 -0.000000 0.000000 0.000000 0.000000 0.000000 0.000000 -0.000000 0.000000 0.000000 -0.000000 0.000000 0.000000 0.134512 0.807670 0.055263 -0.132988 4.315591 -0.477580 0.000000 0.000000 0.000000 0.000000 0.000000 0.000000 -0.039923 2.340335 0.221752 0.287134 1.057506 0.087722 -4.020316 1.651769 0.951206 3.979241 -7.722394 -0.928403 0.000000 0.000000 0.000000 0.000000 0.000000 0.000000 0.273926 -0.275901 19.148862 -0.000000 0.000000 0.000000 2.246623 -4.263428 -6.302765 0.000000 0.000000 0.000000 0.273926 -0.275901 19.148862 -0.000000 0.000000 0.000000 -3.963981 -13.105905 4.748205 0.000000 0.000000 0.000000
33.922748 69.108804 359.077360 -0.192195 0.409057 -18.954811 0.314649 -0.324443 18.956388 -0.289245 0.767027 -0.011186 0.289421 -0.766961 0.015060 0.000000 0.000000 0.000000 0.289421 -0.766961 0.015060 -0.000000 0.000000 0.000000 0.364523 0.732505 0.065867 -0.332721 3.741319 -0.442284 0.000000 0.000000 0.000000 0.000000 0.000000 0.000000 0.210532 1.831060 0.256748 0.188940 0.641755 0.068102 -4.636147 4.886267 1.366097 4.330099 -9.263581 -1.193487 0.000000 0.000000 0.000000 0.000000 0.000000 0.000000 1.027507 -0.886624 19.251294 -0.487686 0.765722 -0.284113 -0.828500 -18.430582 -11.263956 0.000000 0.000000 0.000000 0.314649 -0.324443 18.956388 -0.000000 0.000000 0.000000 -3.706545 -12.338521 4.096226 0.000000 0.000000 0.000000
33.918929 69.097013 359.044499 -0.198351 0.447576 -18.705439 0.331419 -0.360319 18.707256 -0.310698 0.823954 -0.011862 0.310900 -0.823877 0.016331 0.000000 0.000000 0.000000 0.310900 -0.823877 0.016331 -0.000000 0.000000 0.000000 0.771621 1.468489 0.129765 -1.362344 2.051260 -0.361992 0.000000 0.000000 0.000000 0.000000 0.000000 0.000000 0.231080 1.947667 0.274791 0.069521 1.211626 0.136494 -4.076751 5.879725 1.170047 4.234299 -7.078383 -1.453770 0.000000 0.000000 0.000000 0.000000 0.000000 0.000000 1.069307 -1.063643 19.033068 0.001255 0.196868 -0.114655 -3.044617 -22.727000 -13.129561 0.000000 0.000000 0.000000 0.331419 -0.360319 18.707256 -0.000000 0.000000 0.000000 -2.474426 -7.547066 3.178124 0.000000 0.000000 0.000000
33.885163 69.092848 359.005219 -0.236841 0.513402 -18.390505 0.386728 -0.412454 18.392958 -0.329290 0.921896 -0.011659 0.329520 -0.921814 0.016959 0.000000 0.000000 0.000000 0.329520 -0.921814 0.016959 -0.000000 0.000000 0.000000 0.817454 1.980739 0.158423 -1.784693 0.260010 -0.265361 0.000000 0.000000 0.000000 0.000000 0.000000 0.000000 0.331889 1.660884 0.266943 0.379394 2.117737 0.168638 -4.984871 11.313380 1.579747 4.500322 -8.434543 -1.882407 0.000000 0.000000 0.000000 0.000000 0.000000 0.000000 1.169605 -1.184125 18.744283 0.075118 0.235886 -0.111086 -3.440504 -22.545870 -12.322362 0.000000 0.000000 0.000000 0.386728 -0.412454 18.392958 -0.000000 0.000000 0.000000 -1.608530 -5.199415 1.517297 0.000000 0.000000 0.000000
33.829413 69.093477 358.946106 -0.291054 0.602750 -18.072408 0.463694 -0.482711 18.075892 -0.344656 1.013323 -0.011301 0.344910 -1.013237 0.017399 0.000000 0.000000 0.000000 0.344910 -1.013237 0.017399 -0.000000 0.000000 0.000000 1.046170 1.454065 0.145028 -1.717411 0.668458 -0.267171 0.000000 0.000000 0.000000 0.000000 0.000000 0.000000 0.413639 1.657275 0.284121 0.731777 3.637901 0.250576 -5.163396 16.736293 1.606203 6.083736 -8.206126 -2.270907 0.000000 0.000000 0.000000 0.000000 0.000000 0.000000 1.312834 -1.280036 18.452386 -0.034055 0.321655 -0.150648 -2.389262 -17.299478 -8.986325 0.000000 0.000000 0.000000 0.973585 -1.137148 18.283388 -0.278864 0.781321 -0.198386 -0.622498 -4.298332 -2.125676 0.000000 0.000000 0.000000
33.759910 69.101558 358.877846 -0.355069 0.706280 -17.742188 0.102073 0.155278 17.741750 -0.168314 0.333043 -0.011592 0.379158 -1.156012 0.019050 0.000000 0.000000 0.000000 1.192424 -1.093097 0.019972 -0.813123 -0.062741 0.014594 1.029508 1.476872 0.145172 -1.685580 0.334476 -0.245648 0.000000 0.000000 0.000000 0.000000 0.000000 0.000000 0.648102 0.984080 0.261049 1.447233 7.387881 0.409749 -5.786779 24.785193 1.557669 7.729611 -12.651104 -2.047089 0.000000 0.000000 0.000000 0.000000 0.000000 0.000000 1.490141 -1.342106 18.147719 -0.648002 1.030548 -0.379204 -0.442154 -7.907530 -3.712041 0.000000 0.000000 0.000000 1.158746 -1.287370 17.992906 -0.352438 0.874466 -0.233332 -2.213304 -8.927326 -0.250855 0.000000 0.000000 0.000000
33.690054 69.117793 358.804419 -0.420308 0.822015 -17.390447 0.125341 0.180998 17.390592 -0.164408 0.346697 -0.011587 1.048564 -1.922470 0.201506 0.000000 0.000000 0.000000 1.234034 -1.313986 0.040788 -0.822444 0.010577 -0.001367 1.114962 1.521084 0.152262 -1.045803 -0.114484 -0.305053 0.000000 0.000000 0.000000 0.000000 0.000000 0.000000 1.004672 0.119772 0.240845 1.586404 15.775114 0.937485 -2.055296 22.062573 -1.006604 5.054782 -8.357911 -2.752925 0.000000 0.000000 0.000000 0.000000 0.000000 0.000000 1.676212 -1.366687 17.815079 -0.763545 0.988679 -0.393115 0.241325 5.125818 2.001781 0.000000 0.000000 0.000000 1.385884 -1.439635 17.694555 -0.466816 0.968428 -0.279895 -3.234006 -11.793476 1.619367 0.000000 0.000000 0.000000
33.622333 69.137831 358.722766 -0.477230 0.952306 -17.111408 0.146225 0.206934 17.112637 -0.155632 0.354041 -0.010909 1.047369 -2.304055 0.270153 0.000000 0.000000 0.000000 0.432618 -1.460976 0.021042 -0.000000 0.000000 0.000000 0.662285 1.075611 0.102953 -0.179953 1.126221 -0.356301 0.000000 0.000000 0.000000 0.000000 0.000000 0.000000 1.490611 -0.693204 0.251662 2.620485 27.400896 1.271165 -2.316792 15.205841 -2.588600 8.963527 -5.728619 -2.429364 0.000000 0.000000 0.000000 0.000000 0.000000 0.000000 1.864346 -1.386653 17.553660 -0.889454 0.928156 -0.404910 1.132810 11.265978 3.084705 0.000000 0.000000 0.000000 1.660245 -1.595009 17.486637 -0.633268 1.064592 -0.341368 -7.026070 -26.315918 4.929858 0.000000 0.000000 0.000000
